<svg height="480pt" viewBox="0 0 480 480" width="480pt" xmlns="http://www.w3.org/2000/svg" fill="darkgoldenrod"><path d="m200 256c0-44.183594-35.816406-80-80-80s-80 35.816406-80 80 35.816406 80 80 80c44.164062-.046875 79.953125-35.835938 80-80zm-144 0c0-35.347656 28.652344-64 64-64s64 28.652344 64 64-28.652344 64-64 64c-35.328125-.039062-63.960938-28.671875-64-64zm0 0"/><path d="m125.894531 445.40625c4.65625-5.078125 114.105469-125.175781 114.105469-189.40625 0-66.273438-53.726562-120-120-120s-120 53.726562-120 120c0 64.230469 109.449219 184.328125 114.105469 189.40625 1.515625 1.652344 3.652343 2.59375 5.894531 2.59375s4.378906-.941406 5.894531-2.59375zm-109.894531-189.40625c0-57.4375 46.5625-104 104-104s104 46.5625 104 104c0 50.136719-81.175781 146.015625-104 172-22.824219-25.976562-104-121.839844-104-172zm0 0"/><path d="m256 368h176c26.507812 0 48-21.492188 48-48s-21.492188-48-48-48h-128c-17.671875 0-32-14.328125-32-32s14.328125-32 32-32h104v-16h-104c-26.507812 0-48 21.492188-48 48s21.492188 48 48 48h128c17.671875 0 32 14.328125 32 32s-14.328125 32-32 32h-176c-22.089844 0-40 17.910156-40 40s17.910156 40 40 40h192c8.835938 0 16 7.164062 16 16s-7.164062 16-16 16h-328v16h328c17.671875 0 32-14.328125 32-32s-14.328125-32-32-32h-192c-13.253906 0-24-10.746094-24-24s10.746094-24 24-24zm0 0"/><path d="m448 72c0-22.089844-17.910156-40-40-40s-40 17.910156-40 40 17.910156 40 40 40c22.082031-.027344 39.972656-17.917969 40-40zm-64 0c0-13.253906 10.746094-24 24-24s24 10.746094 24 24-10.746094 24-24 24-24-10.746094-24-24zm0 0"/><path d="m402.496094 173.808594c3.085937 2.925781 7.921875 2.925781 11.007812 0 6.808594-6.457032 66.496094-64.113282 66.496094-101.808594 0-39.765625-32.234375-72-72-72s-72 32.234375-72 72c0 37.695312 59.6875 95.351562 66.496094 101.808594zm5.503906-157.808594c30.914062.035156 55.964844 25.085938 56 56 0 23.679688-36.425781 65.152344-56 84.800781-19.574219-19.65625-56-61.113281-56-84.800781.035156-30.914062 25.085938-55.964844 56-56zm0 0"/></svg>