<?xml version="1.0" encoding="utf-8"?>
<!-- Generator: Adobe Illustrator 23.0.3, SVG Export Plug-In . SVG Version: 6.00 Build 0)  -->
<svg version="1.1" id="Layer_1" xmlns="http://www.w3.org/2000/svg" xmlns:xlink="http://www.w3.org/1999/xlink" x="0px" y="0px"
	 viewBox="0 0 1176.3 638.3" style="enable-background:new 0 0 1176.3 638.3;" xml:space="preserve">
<style type="text/css">
	.st0{display:none;}
	.st1{fill:white;stroke:#000000;stroke-miterlimit:10;}
	.st2{fill:white;}
	.st3{fill:none;}
	.st4{font-family:'Georgia-Bold';}
	.st5{font-size:187.0395px;}
	.st6{letter-spacing:37;}
</style>
<rect x="-8.5" y="0.5" class="st0" width="1193.7" height="1026.2"/>
<g>
	<g>
		<path class="st1" d="M693.2,393.1c0,6.1,0,12.2,0.1,18.3c0,3.3-0.9,4.1-4.2,4.1c-71.6-0.1-143.2,0-214.8,0c-9.6,0-9.6,0-9.6-9.5
			v-12.9L693.2,393.1L693.2,393.1z"/>
		<path class="st1" d="M696.9,149.3c-2.8-0.9-5.8-0.8-8.2,0.5c-5.4,2.8-8,8.9-5.3,14.3c0.6,1.1,0.5,2.1-0.1,3.3
			c-3.5,6.2-7.1,12.3-10.4,18.6c-4.5,8.6-9.1,17-13.7,25.4c-3.9,7.1-7.7,14.4-11.5,21.6c-0.4,0.8-0.7,1.6-1.7,1.4
			c-2.2-0.4-3.9,0.8-5.4,2.1c-1.1,1-2.2,1-3.3,0.7c-13-3-25.9-6-38.8-9.1c-1.3-0.3-2.4-0.5-3.1-2.2c-1-2.2-2.9-4.1-5-5.1
			c-4.5-2.2-9-1.4-12.6,1.9c-3.4,3.1-4.4,7.3-2.9,11.9c0.3,0.9,0.5,1.7-0.1,2.5c-3.2,4.9-6.1,9.9-9.4,14.7c-4.9,7.2-9.5,14.5-14,22
			c-1.8,3.1-4,5.2-7.6,6.1c-4.1,1-6.8,4.2-6.8,8.5c0,3.7-1.8,5.6-4.2,7.9c-12,11.2-23.9,22.6-35.7,34c-1.8,1.7-3.3,3.1-6,2.4
			c-0.5-0.1-1.2-0.1-1.9,0c0.6-17.4,6.2-33.7,14.3-49.4c14.9-29,35.7-53.5,58.2-76.7c4.5-4.6,8.9-9.2,13.1-14.2
			c-7.5,0.9-14.9,1.4-22.2,0.6c-8.8-0.9-17.3-3.2-25.7-6.1c-10.7-3.8-19.8-1.4-27.7,6.4c-3.7,3.6-7.5,7.1-11.9,9.9
			c-15.4,9.8-30.8,7.7-45.7-0.8c-9-5.2-16.3-22.4-13.2-31.6c0.8-2.4,1.4-5.1,0.4-7.8c-2.5-6.9,0.1-12.3,5.4-16.8
			c7.9-6.7,15.9-13.3,23.8-20c15.1-12.7,30-25.7,41.6-42c5.3-7.4,12.5-12.3,21.2-15.1c3.6-1.2,7-2.8,10.5-4.1
			c6.6-2.3,9.3-6.9,9.3-13.8c-0.1-6.7,0.1-6.8,6.6-8.3c2.7-0.6,5.5-1,8.3-1.5c6.1-1.2,8.7-3.9,8.2-10.2c-0.7-10.2-0.7-20.4,0.3-30.6
			h0.9c11.1,9.1,20.2,19.9,27.8,32.1c2.6,4.1,6.8,5.9,11.4,7.3c25,7.9,46.2,21.5,62.4,42.1C682,102.1,691.9,124.7,696.9,149.3z"/>
		<path class="st1" d="M693.2,384.9v0.6H464.8c0-8.4,2.7-11.8,11.1-13.9c1.8-0.5,2.1-1.3,2.2-2.9c0.6-8.4,2.3-10.5,10.6-12.4
			c1-0.2,1.5-0.6,1.7-1.1c1.6,0.1,3.2-0.1,4.9-0.7c4.2-1.5,7.4-6.5,6.9-11.3c-0.2-1.4,0.2-2,1.1-2.8c7.1-6.7,14.2-13.4,21.2-20.1
			c6.2-5.9,12.3-11.9,18.5-17.7c0.8-0.8,1.6-1.3,3.2-1.1c7.1,0.6,13.6-4.6,12.4-12.8c-0.2-1.4-1.4-2.9-0.3-4.6
			c1.4-2,2.6-4.1,3.9-6.2c6-9.4,11.9-19,18.2-28.3c2.2-3.2,3.1-8.2,8.7-7.7c0.2,0,0.3-0.6,0.5-0.6c2.1-0.2,3.1-2.6,5.7-2
			c13.2,3.2,26.4,6.1,39.6,9.2c1.1,0.3,2.2,0.8,2.8,2.2c2.3,5,7.3,7,12,5.9c6.8-1.6,10.7-8.8,7.8-15.1c-0.4-0.8-0.7-1.7-0.1-2.7
			c3.6-6.3,7.1-12.6,10.5-18.9c2.8-5.1,5.5-10.3,8.3-15.3c5-9,10-18.1,14.6-27.3c1.7-3.4,3.3-6.1,7.3-6.6c0.5-0.1,1-0.4,1.4-0.8
			c2.3,29.4-3.7,58-12.5,86.3c-8.3,26.7-16.1,53.6-22.2,80.9c-1.2,5.6-1.3,11.1-0.9,16.7c0.1,2.1,0.9,2.8,3,2.9
			c9.3,0.4,12.2,3.2,12.8,12.4c0.1,1.9,0.6,2.6,2.5,3C689.9,373.2,693.2,377.3,693.2,384.9z"/>
	</g>
</g>
<g>
	<path class="st2" d="M301,621.3c-0.5,0.1-1.1,0.2-1.8,0.3s-1.4,0.3-1.9,0.5c-0.6,0.3-1,0.7-1.2,1.2c-0.2,0.5-0.4,1.1-0.4,1.8v3.1
		c0,2.3,0,3.8,0,4.6s0.1,1.4,0.1,2c-2.5,1.1-5,2-7.5,2.6s-4.9,0.9-7.3,0.9c-2.6,0-5-0.5-7.4-1.4s-4.4-2.3-6.2-4.1
		c-1.8-1.8-3.2-4-4.3-6.5s-1.6-5.4-1.6-8.6c0-3,0.5-5.9,1.5-8.5s2.4-4.9,4.3-6.8c1.8-1.9,3.9-3.3,6.4-4.4c2.5-1,5.1-1.6,8-1.6
		c2.3,0,4.2,0.3,5.9,0.8c1.7,0.5,3.1,1.2,4.4,2l1.2-1.9h2.2l0.3,14h-2.3c-0.4-1.5-0.9-3.1-1.5-4.6s-1.3-2.8-2.3-4
		c-0.9-1.2-2-2.1-3.4-2.8c-1.3-0.7-2.9-1.1-4.8-1.1c-2,0-3.8,0.4-5.4,1.2s-3,2-4.1,3.7c-1.1,1.6-2,3.5-2.7,5.8
		c-0.6,2.3-0.9,5-0.9,7.8c0,2.5,0.3,4.9,0.9,7.2c0.6,2.3,1.5,4.2,2.7,5.8c1.2,1.7,2.6,3,4.4,4s3.7,1.4,6,1.4c1.7,0,3.2-0.3,4.5-0.8
		s2.3-1,2.9-1.6c0.1-1,0.2-2,0.2-3c0-1,0-1.8,0-2.5v-2.2c0-0.8-0.1-1.5-0.3-2.1c-0.2-0.6-0.7-1.1-1.3-1.3c-0.6-0.3-1.5-0.5-2.5-0.6
		c-1.1-0.1-1.9-0.2-2.5-0.3v-2.1h17.6L301,621.3L301,621.3z"/>
	<path class="st2" d="M342.1,625.4l-0.9,11.9h-31.3v-2c0.5,0,1.1-0.1,2-0.2c0.9-0.1,1.5-0.2,1.8-0.4c0.6-0.3,1-0.6,1.2-1.1
		c0.3-0.5,0.4-1.1,0.4-1.8v-28.7c0-0.6-0.1-1.2-0.3-1.7c-0.2-0.5-0.6-0.9-1.3-1.2c-0.4-0.2-1-0.4-1.8-0.7s-1.4-0.3-1.9-0.4v-2h16.9
		v2c-0.5,0-1.2,0.1-2,0.3c-0.8,0.2-1.5,0.3-1.8,0.5c-0.6,0.2-1.1,0.6-1.3,1.2s-0.4,1.1-0.4,1.8v26.9c0,1.2,0.1,2.2,0.2,2.9
		c0.1,0.7,0.4,1.2,0.9,1.6c0.4,0.3,1.1,0.6,1.9,0.7c0.9,0.1,2.1,0.2,3.6,0.2c0.7,0,1.4,0,2.2-0.1c0.8,0,1.5-0.1,2.1-0.2
		c0.7-0.1,1.3-0.3,1.8-0.5c0.6-0.2,1-0.5,1.2-0.8c0.8-0.9,1.7-2.2,2.7-3.9s1.7-3.2,2.1-4.3L342.1,625.4L342.1,625.4z"/>
	<path class="st2" d="M383,602c1.8,1.8,3.1,4.1,4.1,6.7s1.5,5.5,1.5,8.7c0,3.2-0.5,6.1-1.5,8.7s-2.4,4.8-4.2,6.6
		c-1.8,1.8-3.8,3.2-6.1,4.2s-4.8,1.5-7.4,1.5c-2.8,0-5.4-0.5-7.7-1.6c-2.4-1-4.4-2.5-6.1-4.4c-1.7-1.8-3-4-4-6.7
		c-1-2.6-1.5-5.4-1.5-8.4c0-3.3,0.5-6.2,1.5-8.7s2.4-4.8,4.2-6.6c1.8-1.8,3.8-3.3,6.2-4.2c2.3-1,4.8-1.5,7.4-1.5
		c2.7,0,5.2,0.5,7.5,1.5C379.2,598.7,381.3,600.1,383,602z M378.8,630.4c1-1.7,1.8-3.7,2.3-5.8c0.5-2.2,0.7-4.6,0.7-7.3
		c0-2.8-0.3-5.3-0.8-7.6s-1.3-4.3-2.4-5.9c-1-1.6-2.3-2.8-3.9-3.7s-3.4-1.3-5.4-1.3c-2.3,0-4.2,0.5-5.8,1.5c-1.6,1-2.9,2.4-3.9,4.2
		c-0.9,1.7-1.6,3.6-2.1,5.8c-0.5,2.2-0.7,4.6-0.7,7c0,2.7,0.2,5.2,0.7,7.3c0.5,2.2,1.3,4.1,2.3,5.8c1,1.7,2.3,3,3.8,3.9
		s3.4,1.4,5.5,1.4c2,0,3.8-0.5,5.5-1.4C376.4,633.4,377.7,632.1,378.8,630.4z"/>
	<path class="st2" d="M427.8,618.6c1.2,0.8,2.1,1.8,2.9,3.1c0.8,1.3,1.2,2.8,1.2,4.7c0,1.9-0.4,3.5-1.2,4.9s-1.9,2.5-3.2,3.4
		c-1.3,0.9-2.7,1.5-4.3,2c-1.6,0.5-3.2,0.7-4.9,0.7h-19v-2c0.5,0,1.1-0.1,2-0.2c0.9-0.1,1.5-0.3,1.9-0.4c0.6-0.3,1-0.6,1.2-1.1
		s0.4-1,0.4-1.7V603c0-0.6-0.1-1.2-0.3-1.7c-0.2-0.5-0.6-0.9-1.3-1.2c-0.6-0.3-1.2-0.5-1.9-0.7c-0.7-0.2-1.3-0.2-1.8-0.3v-2H418
		c1.4,0,2.8,0.1,4.1,0.4c1.3,0.3,2.6,0.8,3.7,1.5c1.1,0.7,2,1.5,2.7,2.7s1.1,2.5,1.1,4.1c0,1.4-0.3,2.7-0.8,3.8
		c-0.5,1.1-1.2,2-2.1,2.8c-0.9,0.8-1.9,1.4-3,1.9c-1.1,0.5-2.3,0.9-3.6,1.2v0.3c1.1,0.1,2.4,0.4,3.9,0.9S426.7,617.8,427.8,618.6z
		 M421,612.6c0.7-0.8,1.2-1.7,1.5-2.7c0.3-1,0.4-2.1,0.4-3.4c0-2.2-0.6-3.9-1.8-5.2c-1.2-1.3-3.1-1.9-5.7-1.9c-0.6,0-1.4,0-2.3,0
		c-0.9,0-1.7,0-2.3,0.1V615h3.6c1.5,0,2.9-0.2,4-0.6C419.4,614,420.3,613.4,421,612.6z M424.9,625.4c0-2.4-0.8-4.3-2.4-5.8
		c-1.6-1.5-3.9-2.3-6.8-2.3c-1.2,0-2.2,0-3,0c-0.8,0-1.5,0-1.9,0.1v14.1c0,1.2,0.5,2.1,1.4,2.7s2.3,0.9,4,0.9c2.8,0,5-0.8,6.4-2.5
		C424.2,631,424.9,628.6,424.9,625.4z"/>
	<path class="st2" d="M480.4,637.3h-16.7v-2c1.5-0.1,2.7-0.3,3.7-0.6c1-0.3,1.5-0.6,1.5-1c0-0.2,0-0.4-0.1-0.6s-0.1-0.5-0.2-0.7
		l-3.3-9h-14.1c-0.5,1.3-1,2.5-1.3,3.5c-0.3,1-0.6,1.9-0.9,2.7c-0.3,0.8-0.4,1.5-0.5,2s-0.1,0.9-0.1,1.2c0,0.8,0.6,1.3,1.8,1.8
		s2.5,0.7,4,0.7v2h-15.1v-2c0.5,0,1.1-0.2,1.8-0.3c0.7-0.2,1.3-0.4,1.8-0.7c0.8-0.5,1.3-1,1.8-1.6c0.4-0.5,0.8-1.3,1.2-2.3
		c2-5,4.2-10.7,6.7-17c2.4-6.3,4.6-11.8,6.5-16.8h2.3l13.4,34.6c0.3,0.7,0.6,1.3,1,1.8s0.9,0.9,1.5,1.3c0.4,0.3,1,0.5,1.7,0.7
		s1.3,0.3,1.8,0.3L480.4,637.3L480.4,637.3z M464.3,620.9l-6.1-15.5l-6,15.5H464.3z"/>
	<path class="st2" d="M519.8,625.4l-0.8,11.9h-31.3v-2c0.5,0,1.1-0.1,2-0.2c0.9-0.1,1.5-0.2,1.8-0.4c0.6-0.3,1-0.6,1.2-1.1
		c0.3-0.5,0.4-1.1,0.4-1.8v-28.7c0-0.6-0.1-1.2-0.3-1.7c-0.2-0.5-0.6-0.9-1.3-1.2c-0.4-0.2-1-0.4-1.8-0.7s-1.4-0.3-1.9-0.4v-2h16.9
		v2c-0.5,0-1.2,0.1-2,0.3c-0.8,0.2-1.4,0.3-1.8,0.5c-0.6,0.2-1.1,0.6-1.3,1.2c-0.2,0.5-0.4,1.1-0.4,1.8v26.9c0,1.2,0.1,2.2,0.2,2.9
		c0.1,0.7,0.4,1.2,0.9,1.6c0.4,0.3,1.1,0.6,1.9,0.7c0.9,0.1,2.1,0.2,3.6,0.2c0.7,0,1.4,0,2.2-0.1c0.8,0,1.5-0.1,2.2-0.2
		c0.7-0.1,1.3-0.3,1.8-0.5s1-0.5,1.2-0.8c0.8-0.9,1.7-2.2,2.7-3.9s1.7-3.2,2.1-4.3L519.8,625.4L519.8,625.4z"/>
	<path class="st2" d="M573,618.9c0.8,0.9,1.5,2,1.9,3.1c0.4,1.1,0.6,2.4,0.6,3.9c0,3.5-1.3,6.5-3.9,8.8s-5.9,3.5-9.8,3.5
		c-1.8,0-3.6-0.3-5.4-0.8c-1.8-0.5-3.3-1.2-4.6-2l-1.2,2.1h-2.3l-0.4-13.7h2.3c0.5,1.7,1,3.2,1.7,4.6c0.6,1.4,1.5,2.6,2.5,3.8
		c1,1.1,2.1,2,3.4,2.7s2.8,1,4.6,1c1.3,0,2.4-0.2,3.4-0.5c1-0.3,1.8-0.8,2.4-1.4c0.6-0.6,1-1.3,1.3-2.2c0.3-0.8,0.4-1.8,0.4-2.9
		c0-1.6-0.5-3.1-1.3-4.5c-0.9-1.4-2.3-2.4-4-3.2c-1.2-0.5-2.6-1-4.2-1.6c-1.6-0.6-3-1.2-4.1-1.7c-2.3-1-4-2.3-5.3-4
		s-1.9-3.8-1.9-6.5c0-1.5,0.3-3,0.9-4.3c0.6-1.3,1.5-2.5,2.7-3.5c1.1-1,2.4-1.8,3.9-2.3s3-0.8,4.7-0.8c1.8,0,3.5,0.3,5,0.8
		c1.5,0.6,2.8,1.2,4,2l1.2-1.9h2.3l0.2,13.3h-2.3c-0.4-1.5-0.9-3-1.4-4.4c-0.5-1.4-1.2-2.7-2-3.8c-0.8-1.1-1.8-2-3-2.6
		c-1.2-0.7-2.6-1-4.3-1c-1.8,0-3.3,0.6-4.6,1.7c-1.3,1.2-1.9,2.5-1.9,4.2c0,1.7,0.4,3.2,1.2,4.3s2,2.1,3.5,2.8
		c1.4,0.7,2.7,1.2,4,1.7c1.3,0.5,2.6,1,3.9,1.5c1.1,0.5,2.2,1,3.3,1.7C571.3,617.4,572.2,618.1,573,618.9z"/>
	<path class="st2" d="M620,625.5l-0.8,11.8H586v-2c0.6,0,1.3-0.1,2.3-0.2s1.5-0.3,1.8-0.4c0.6-0.3,1-0.7,1.3-1.1
		c0.2-0.5,0.3-1,0.3-1.7V603c0-0.6-0.1-1.2-0.3-1.7c-0.2-0.5-0.6-0.9-1.3-1.2c-0.5-0.2-1.2-0.5-2-0.7s-1.5-0.3-2-0.3v-2h31v9.7h-2.1
		c-0.4-1.4-1.2-3-2.4-4.6s-2.4-2.5-3.6-2.6c-0.6-0.1-1.3-0.1-2.1-0.2s-1.7-0.1-2.8-0.1h-6.3v15.9h4.5c1.5,0,2.5-0.1,3.2-0.4
		c0.7-0.3,1.3-0.7,1.8-1.4c0.4-0.5,0.8-1.3,1.1-2.2s0.5-1.8,0.6-2.6h2.1v15.7h-2.1c-0.1-0.9-0.3-1.9-0.6-2.9c-0.3-1-0.7-1.7-1-2.2
		c-0.6-0.7-1.3-1.2-2-1.4s-1.7-0.3-3-0.3h-4.5v12c0,1.2,0.1,2.2,0.3,2.8c0.2,0.7,0.5,1.2,1,1.6c0.5,0.4,1.2,0.6,2,0.7
		c0.8,0.1,2,0.2,3.6,0.2c0.6,0,1.4,0,2.5,0s1.9,0,2.6-0.1c0.7-0.1,1.5-0.2,2.2-0.4c0.8-0.2,1.3-0.5,1.6-0.8c0.9-0.9,1.8-2.3,2.7-4.1
		c1-1.8,1.6-3.2,1.8-4.1L620,625.5L620,625.5z"/>
	<path class="st2" d="M668.9,637.3h-10.8c-2.4-3.8-4.5-7-6.5-9.7c-1.9-2.7-4-5.5-6.3-8.5h-4.1v12.7c0,0.7,0.1,1.2,0.3,1.7
		s0.7,0.9,1.3,1.1c0.3,0.1,0.9,0.3,1.8,0.4c0.8,0.1,1.6,0.2,2.2,0.2v2h-17v-2c0.5,0,1.1-0.1,2-0.2c0.9-0.1,1.5-0.2,1.8-0.4
		c0.6-0.3,1-0.6,1.2-1.1c0.3-0.5,0.4-1.1,0.4-1.8v-29c0-0.7-0.1-1.2-0.3-1.8c-0.2-0.5-0.6-0.9-1.3-1.2c-0.5-0.2-1.1-0.3-1.8-0.5
		c-0.8-0.1-1.4-0.2-1.9-0.3v-2h18.5c1.7,0,3.3,0.2,4.8,0.5c1.5,0.3,2.8,0.9,4,1.7c1.2,0.8,2.1,1.7,2.8,3c0.7,1.2,1,2.7,1,4.4
		c0,1.5-0.2,2.9-0.7,4.1c-0.5,1.2-1.2,2.2-2.1,3.1c-0.8,0.8-1.9,1.5-3,2.1c-1.2,0.6-2.5,1.1-3.9,1.5c2,2.6,3.6,4.8,4.9,6.6
		s2.9,4,4.8,6.5c0.8,1.1,1.6,2,2.3,2.5s1.3,1,2,1.3c0.5,0.3,1.1,0.4,1.8,0.6c0.7,0.1,1.3,0.2,1.8,0.2L668.9,637.3L668.9,637.3z
		 M654,607.4c0-2.4-0.7-4.3-2.1-5.8c-1.4-1.4-3.4-2.1-5.9-2.1h-4.8v17.2h3.7c2.6,0,4.8-0.8,6.5-2.5C653.2,612.5,654,610.3,654,607.4
		z"/>
	<path class="st2" d="M713.2,599.2c-0.5,0-1.1,0.1-1.8,0.3s-1.3,0.4-1.7,0.7c-0.6,0.4-1.2,0.9-1.5,1.5c-0.4,0.6-0.8,1.4-1.1,2.2
		c-1.3,3-3.2,7.7-5.7,14c-2.5,6.3-5.1,12.9-7.8,19.8h-2.3c-2.7-7.3-5.3-14.3-7.8-21.1c-2.5-6.8-4.2-11.3-5.1-13.7
		c-0.2-0.6-0.5-1.1-0.9-1.5c-0.4-0.4-0.9-0.9-1.5-1.3c-0.5-0.3-1.1-0.6-1.7-0.7c-0.6-0.2-1.2-0.3-1.7-0.3v-2H689v2
		c-1.4,0.1-2.6,0.2-3.6,0.4c-1,0.2-1.5,0.6-1.5,1.1c0,0.2,0,0.5,0.1,0.7c0.1,0.3,0.1,0.5,0.2,0.7c0.7,1.8,1.8,4.9,3.4,9
		c1.6,4.2,3.8,10.1,6.7,17.8c1.4-3.5,3.1-7.6,4.9-12.3s3.1-8,3.8-9.8c0.6-1.7,1-2.9,1.1-3.6c0.1-0.7,0.2-1.2,0.2-1.6
		c0-0.4-0.2-0.8-0.6-1.1c-0.4-0.3-0.9-0.5-1.5-0.8c-0.6-0.2-1.3-0.3-1.9-0.4c-0.6-0.1-1.3-0.2-2-0.2v-2h14.9L713.2,599.2
		L713.2,599.2z"/>
	<path class="st2" d="M738.1,637.3h-18v-2c0.5,0,1.2-0.1,2.2-0.2c1-0.1,1.6-0.2,2-0.3c0.6-0.2,1.1-0.6,1.4-1c0.3-0.4,0.4-1,0.4-1.8
		v-29c0-0.7-0.1-1.2-0.3-1.7s-0.7-0.8-1.5-1.1c-0.6-0.2-1.3-0.4-2.1-0.6c-0.9-0.2-1.6-0.3-2.1-0.3v-2h18v2c-0.6,0-1.3,0.1-2.1,0.2
		s-1.5,0.3-2.1,0.5c-0.7,0.2-1.2,0.6-1.4,1.1c-0.2,0.5-0.4,1.1-0.4,1.7v29c0,0.6,0.1,1.2,0.4,1.7c0.3,0.5,0.7,0.9,1.4,1.1
		c0.4,0.2,1,0.3,1.9,0.5c0.9,0.2,1.7,0.3,2.3,0.3L738.1,637.3L738.1,637.3z"/>
	<path class="st2" d="M766.5,638.3c-2.4,0-4.7-0.5-6.9-1.4s-4.1-2.3-5.8-4.1c-1.7-1.8-3-3.9-4-6.5c-1-2.5-1.5-5.4-1.5-8.6
		s0.5-6.1,1.5-8.7s2.3-4.9,4.1-6.7c1.7-1.9,3.7-3.3,6.1-4.3c2.3-1,4.8-1.5,7.5-1.5c2,0,3.8,0.3,5.4,0.7s3.1,1.2,4.6,2.1l1.2-1.9h2.3
		l0.3,14.3h-2.3c-0.3-1.4-0.8-2.9-1.3-4.5s-1.3-3-2.1-4.1c-0.9-1.3-2-2.3-3.2-3c-1.2-0.7-2.7-1.1-4.3-1.1c-1.8,0-3.5,0.4-5.1,1.2
		c-1.6,0.8-2.9,2-4.1,3.6c-1.1,1.5-2,3.5-2.6,5.8c-0.6,2.4-0.9,5-0.9,7.9c0,2.6,0.3,4.9,1,7c0.7,2.1,1.6,4,2.8,5.6
		c1.2,1.6,2.6,2.9,4.3,3.8c1.7,0.9,3.5,1.4,5.5,1.4c1.5,0,2.9-0.2,4.2-0.7c1.3-0.5,2.4-1.1,3.3-1.9c0.9-0.8,1.8-1.8,2.5-2.8
		c0.7-1.1,1.3-2.2,1.8-3.5l2.1,1c-1.6,4-3.8,6.8-6.4,8.5C773.4,637.4,770.2,638.3,766.5,638.3z"/>
	<path class="st2" d="M825.5,625.5l-0.8,11.8h-33.3v-2c0.6,0,1.3-0.1,2.3-0.2s1.5-0.3,1.8-0.4c0.6-0.3,1-0.7,1.3-1.1
		c0.2-0.5,0.3-1,0.3-1.7V603c0-0.6-0.1-1.2-0.3-1.7c-0.2-0.5-0.6-0.9-1.3-1.2c-0.5-0.2-1.2-0.5-2-0.7s-1.5-0.3-2-0.3v-2h31v9.7h-2.1
		c-0.4-1.4-1.2-3-2.4-4.6s-2.4-2.5-3.6-2.6c-0.6-0.1-1.3-0.1-2.1-0.2s-1.7-0.1-2.8-0.1h-6.3v15.9h4.5c1.5,0,2.5-0.1,3.2-0.4
		c0.7-0.3,1.3-0.7,1.8-1.4c0.4-0.5,0.8-1.3,1.1-2.2s0.5-1.8,0.6-2.6h2.1v15.7h-2.1c-0.1-0.9-0.3-1.9-0.6-2.9c-0.3-1-0.7-1.7-1-2.2
		c-0.6-0.7-1.3-1.2-2-1.4s-1.7-0.3-3-0.3h-4.5v12c0,1.2,0.1,2.2,0.3,2.8c0.2,0.7,0.5,1.2,1,1.6c0.5,0.4,1.2,0.6,2,0.7
		c0.8,0.1,2,0.2,3.6,0.2c0.6,0,1.4,0,2.5,0s1.9,0,2.6-0.1c0.7-0.1,1.5-0.2,2.2-0.4c0.8-0.2,1.3-0.5,1.6-0.8c0.9-0.9,1.8-2.3,2.7-4.1
		c1-1.8,1.6-3.2,1.8-4.1L825.5,625.5L825.5,625.5z"/>
	<path class="st2" d="M860.4,618.9c0.8,0.9,1.5,2,1.9,3.1c0.4,1.1,0.6,2.4,0.6,3.9c0,3.5-1.3,6.5-3.9,8.8s-5.9,3.5-9.8,3.5
		c-1.8,0-3.6-0.3-5.4-0.8c-1.8-0.5-3.3-1.2-4.6-2l-1.2,2.1h-2.3l-0.4-13.7h2.3c0.5,1.7,1,3.2,1.7,4.6c0.6,1.4,1.5,2.6,2.5,3.8
		c1,1.1,2.1,2,3.4,2.7s2.8,1,4.6,1c1.3,0,2.4-0.2,3.4-0.5c1-0.3,1.8-0.8,2.4-1.4c0.6-0.6,1-1.3,1.3-2.2c0.3-0.8,0.4-1.8,0.4-2.9
		c0-1.6-0.5-3.1-1.3-4.5c-0.9-1.4-2.3-2.4-4-3.2c-1.2-0.5-2.6-1-4.2-1.6c-1.6-0.6-3-1.2-4.1-1.7c-2.3-1-4-2.3-5.3-4
		s-1.9-3.8-1.9-6.5c0-1.5,0.3-3,0.9-4.3c0.6-1.3,1.5-2.5,2.7-3.5c1.1-1,2.4-1.8,3.9-2.3s3-0.8,4.7-0.8c1.8,0,3.5,0.3,5,0.8
		c1.5,0.6,2.8,1.2,4,2l1.2-1.9h2.3l0.2,13.3h-2.3c-0.4-1.5-0.9-3-1.4-4.4c-0.5-1.4-1.2-2.7-2-3.8c-0.8-1.1-1.8-2-3-2.6
		c-1.2-0.7-2.6-1-4.3-1c-1.8,0-3.3,0.6-4.6,1.7c-1.3,1.2-1.9,2.5-1.9,4.2c0,1.7,0.4,3.2,1.2,4.3s2,2.1,3.5,2.8
		c1.4,0.7,2.7,1.2,4,1.7c1.3,0.5,2.6,1,3.9,1.5c1.1,0.5,2.2,1,3.3,1.7C858.7,617.4,859.6,618.1,860.4,618.9z"/>
</g>
<polygon class="st3" points="644.7,529.8 576.4,277.6 563.9,533.7 644.7,533.7 "/>
<text transform="matrix(1 0 0 1 577.9521 418.9573)" class="st2 st4 st5 st6"> </text>
<g>
	<path class="st2" d="M152.1,441.9c-2,0.2-3.9,0.5-5.8,1.1c-1.8,0.5-3.7,1.4-5.7,2.6c-2.6,1.5-4.6,3.1-6.1,4.9
		c-1.4,1.7-2.9,4.1-4.3,7.2c-1.9,4.2-4.5,10.3-7.9,18.4c-3.4,8.1-7.3,17.2-11.7,27.5c-3.9,9.3-8.1,19.4-12.7,30.4s-8.9,21.6-13,31.7
		H66.8c-8.5-20.9-17.2-42.1-26-63.6c-8.8-21.5-15-36.5-18.6-44.9c-1.4-3-2.8-5.3-4.1-6.9c-1.3-1.5-3.4-3.1-6.3-4.8
		c-2.1-1.2-3.9-2-5.5-2.4c-1.6-0.5-3.7-0.9-6.3-1.2v-7.1h70.2v6.9c-6.6,0.8-11,1.6-13.4,2.5c-2.3,0.9-3.5,2-3.5,3.3
		c0,0.7,0.1,1.4,0.3,2.1c0.2,0.8,0.5,1.8,1,3.1c2,5.4,5.5,14.1,10.6,26.2s12.7,30.6,22.7,55.5c6.2-15.1,11.3-27.9,15.3-38.4
		c4.1-10.5,7.7-19.7,10.8-27.7c1.5-3.9,2.8-7.5,3.8-10.9c1-3.4,1.5-5.9,1.5-7.6c0-2-1.4-3.6-4.2-4.9c-2.8-1.3-8-2.3-15.5-2.9v-7.3
		h52.5L152.1,441.9L152.1,441.9z"/>
	<path class="st2" d="M307,467.7H300c-1.8-4.9-4.8-9.9-9.1-14.9s-8.6-8-12.9-8.9c-1.8-0.4-4.4-0.7-7.6-0.8s-6-0.1-8.1-0.1h-18.8v50
		h13.3c3.4,0,6.4-0.4,9.1-1.2c2.7-0.8,5.2-2.3,7.5-4.6c1.4-1.4,2.8-3.9,4.3-7.4c1.4-3.5,2.4-6.6,2.8-9.2h6.9v54.1h-6.9
		c-0.4-2.6-1.3-5.8-2.8-9.6c-1.5-3.9-2.9-6.5-4.3-8c-2-2.2-4.4-3.7-7.1-4.5c-2.7-0.8-5.9-1.2-9.5-1.2h-13.3v37.3
		c0,3.9,0.3,7,0.9,9.3s1.7,4,3.2,5.3c1.5,1.2,3.6,1.9,6.3,2.3c2.6,0.4,6.3,0.5,10.8,0.5c2.1,0,4.7,0,7.7-0.1s5.6-0.2,7.9-0.5
		c2.6-0.3,4.9-0.8,7.2-1.4c2.2-0.6,3.9-1.5,5-2.7c2.9-3,6.2-7.5,9.9-13.7s6.1-10.7,7.2-13.7h6.7l-2.5,40.4H192.1v-7.1
		c1.7-0.1,4-0.4,6.9-0.7c2.9-0.4,5-0.8,6.2-1.3c2.3-1,3.9-2.2,4.7-3.7c0.8-1.5,1.2-3.4,1.2-5.7v-91.4c0-2.2-0.3-4-1-5.4
		c-0.7-1.4-2.3-2.7-4.8-3.9c-1.6-0.7-3.8-1.4-6.7-2c-2.9-0.6-5-1-6.5-1.2v-7.1H307L307,467.7L307,467.7z"/>
	<path class="st2" d="M432.3,567.7c-9.5,0-18.4-1.5-26.7-4.6c-8.3-3.1-15.5-7.5-21.6-13.4c-6-5.7-10.8-12.8-14.2-21.3
		s-5.2-17.7-5.2-27.8c0-10.1,1.8-19.4,5.3-27.9s8.4-16,14.8-22.3c6.2-6.1,13.7-10.9,22.4-14.3c8.7-3.4,18-5.1,27.9-5.1
		c7.2,0,13.7,0.9,19.6,2.6s10.9,3.7,15,5.9l5.7-5h7.9l0.8,47.3h-8c-4.6-14.5-10-25.1-16.4-31.9c-6.4-6.8-14.2-10.2-23.4-10.2
		c-11.4,0-20.1,5-26.1,15.1c-6,10.1-8.9,24.3-8.9,42.5c0,10.3,1,19.1,3,26.4c2,7.3,4.7,13.2,8,17.6c3.5,4.6,7.7,8,12.5,10.2
		c4.8,2.2,10.1,3.3,16,3.3c8.5,0,16.1-2.3,22.8-6.9s12.7-11.6,18.2-21l7.9,4.8c-2.6,5.4-5.6,10.2-9,14.4s-7.2,7.9-11.6,10.9
		c-4.8,3.3-10.1,6-15.9,7.8C447.1,566.8,440.2,567.7,432.3,567.7z"/>
	<path class="st2" d="M603.5,567.7c-9.5,0-18.4-1.5-26.7-4.6c-8.3-3.1-15.5-7.5-21.6-13.4c-6-5.7-10.8-12.8-14.2-21.3
		s-5.2-17.7-5.2-27.8c0-10.1,1.8-19.4,5.3-27.9s8.4-16,14.8-22.3c6.2-6.1,13.7-10.9,22.4-14.3c8.7-3.4,18-5.1,27.9-5.1
		c7.2,0,13.7,0.9,19.6,2.6s10.9,3.7,15,5.9l5.7-5h8l0.8,47.3h-8c-4.6-14.5-10-25.1-16.4-31.9c-6.4-6.8-14.2-10.2-23.3-10.2
		c-11.4,0-20.1,5-26.1,15.1c-6,10.1-8.9,24.3-8.9,42.5c0,10.3,1,19.1,3,26.4c2,7.3,4.7,13.2,8,17.6c3.5,4.6,7.7,8,12.5,10.2
		c4.8,2.2,10.1,3.3,16,3.3c8.5,0,16.1-2.3,22.8-6.9c6.7-4.6,12.7-11.6,18.2-21l7.8,4.8c-2.6,5.4-5.6,10.2-9,14.4
		c-3.3,4.2-7.2,7.9-11.6,10.9c-4.8,3.3-10.1,6-15.9,7.8C618.3,566.8,611.4,567.7,603.5,567.7z"/>
	<path class="st2" d="M864.9,564.2h-70v-7.1c1.5-0.1,3.7-0.3,6.7-0.5c2.9-0.2,4.9-0.6,6-1.1c2.3-0.9,3.8-2.1,4.7-3.6
		c0.8-1.5,1.3-3.4,1.3-5.7v-44.6h-55.3v43.6c0,2.1,0.4,3.9,1.3,5.6s2.4,2.9,4.5,3.8c1.2,0.5,3.1,1,5.9,1.5c2.8,0.5,5.1,0.9,6.8,1
		v7.1h-70v-7.1c1.5-0.1,3.8-0.3,6.7-0.6s5.1-0.7,6.4-1.2c2.2-0.8,3.7-2,4.6-3.6c0.8-1.6,1.3-3.5,1.3-5.7v-91.7
		c0-2.1-0.4-3.9-1.1-5.4s-2.3-2.7-4.7-3.8c-1.8-0.8-4.1-1.5-6.9-2.1c-2.9-0.6-4.9-1-6.2-1.1v-7.1h70v7.1c-1.9,0.1-4.1,0.4-6.8,0.9
		c-2.6,0.5-4.6,0.9-6,1.4c-2.4,0.8-3.9,2-4.7,3.8c-0.8,1.7-1.1,3.6-1.1,5.5V492h55.3v-37.8c0-2.1-0.4-3.9-1.2-5.4s-2.4-2.7-4.8-3.8
		c-1.6-0.7-3.7-1.4-6.3-2c-2.7-0.6-4.8-1-6.3-1.2v-7.1h70v7.1c-2,0.1-4.1,0.4-6.6,0.8s-4.6,0.9-6.6,1.5c-2.3,0.8-3.9,2-4.7,3.7
		c-0.8,1.7-1.2,3.6-1.2,5.6v91.8c0,2.2,0.4,4,1.2,5.6s2.3,2.8,4.7,3.8c1.5,0.6,3.6,1.2,6.3,1.6c2.8,0.5,5,0.8,6.8,0.9L864.9,564.2
		L864.9,564.2z"/>
	<path class="st2" d="M986.2,564.2h-71.9v-7.1c1.6-0.1,4.1-0.3,7.3-0.5c3.2-0.2,5.4-0.6,6.6-1.1c2.3-0.9,3.8-2.1,4.6-3.6
		s1.2-3.4,1.2-5.7v-91.9c0-2.1-0.4-3.9-1.2-5.5c-0.8-1.6-2.3-2.9-4.7-3.8c-1.5-0.6-3.6-1.2-6.5-1.9c-2.9-0.6-5.3-1.1-7.4-1.3v-7.1
		h71.9v7.1c-1.8,0.2-4.1,0.4-6.8,0.8c-2.7,0.3-5,0.8-6.9,1.4c-2.4,0.8-4,2-4.8,3.7c-0.8,1.7-1.2,3.6-1.2,5.7v91.8
		c0,2.2,0.4,4.1,1.2,5.6s2.4,2.8,4.7,3.8c1.3,0.5,3.4,1.1,6.3,1.6c3,0.5,5.4,0.8,7.4,1L986.2,564.2L986.2,564.2z"/>
	<path class="st2" d="M1176.3,564.2h-70.6v-7.1c3.3-0.2,7.1-0.8,11.6-1.8c4.4-0.9,6.7-2.1,6.7-3.5c0-0.5-0.1-1-0.1-1.6
		s-0.3-1.4-0.8-2.5l-11.1-26.8h-44.7c-1,2.5-2.2,5.4-3.4,8.8c-1.2,3.3-2.3,6.3-3.2,9c-1.2,3.4-1.8,5.9-2,7.4
		c-0.2,1.5-0.3,2.6-0.3,3.2c0,2,1.5,3.6,4.4,5c2.9,1.4,7.9,2.4,14.7,3v7.1h-53.1v-7.1c2-0.1,4.3-0.4,6.8-1c2.5-0.5,4.5-1.2,6-2.2
		c2.5-1.5,4.6-3.3,6.3-5.4c1.7-2.1,3.2-4.7,4.3-7.6c7.1-17.1,14.1-34.2,21.2-51.4s14.9-36.1,23.5-56.8h18.3
		c11.9,29.3,21.3,52.5,28,69.6c6.8,17,12.5,31.2,17.3,42.4c0.8,1.8,1.8,3.5,3,5s2.9,2.9,5.2,4.3c1.7,1,3.7,1.7,5.9,2.2
		c2.3,0.5,4.3,0.8,6.1,0.9L1176.3,564.2L1176.3,564.2z M1108.2,511.8l-18.8-46.8l-18.5,46.8H1108.2z"/>
</g>
</svg>
